<svg width="140" height="140" viewBox="0 0 140 140" fill="none" xmlns="http://www.w3.org/2000/svg">
<path d="M140 0H0V140H140V0Z" fill="#004750"/>
<path d="M41.9893 121.379V122H31.0049L23.6391 109.281V121.379H26.9294V122H12.0765V121.379H15.1598V96.3263L11.7267 94.2493H26.2585C33.8527 94.2493 38.2065 96.519 38.2065 101.144C38.2065 104.963 35.9368 107.311 31.9256 108.396L40.1336 121.379H41.9893ZM23.6391 94.8631V108.546C28.3783 108.274 29.349 106.005 29.349 101.223C29.349 97.3326 27.9215 94.8631 24.881 94.8631H23.6391Z" fill="white"/>
<path d="M58.9049 118.531C57.2848 120.993 54.7081 122.385 51.118 122.385C45.6865 122.385 41.2113 118.609 41.2113 112.635C41.2113 107.004 44.9942 102.343 51.1609 102.343C54.7795 102.343 57.2847 104.484 57.2847 107.275C57.2847 110.473 54.8223 113.285 50.1973 115.019C52.3885 117.16 55.1935 118.588 57.7487 118.588C58.1255 118.588 58.5013 118.548 58.8693 118.466L58.9049 118.531ZM45.9934 105.962C45.9934 109.166 47.6493 112.385 49.9618 114.791C51.0233 113.386 51.5565 111.653 51.4678 109.894C51.4678 106.54 49.2338 103.692 47.5708 103.692C46.5715 103.692 45.9934 104.541 45.9934 105.962Z" fill="white"/>
<path d="M79.6819 121.379V122H70.0464V119.801C68.2335 121.343 66.1922 122.385 64.0724 122.385C61.5672 122.385 59.8685 120.957 59.8685 118.531C59.8685 114.962 63.6442 112.635 70.0464 111.936C70.0464 107.696 68.3477 105.576 65.4214 105.576C63.8763 105.534 62.369 106.057 61.1818 107.047L60.989 106.854C63.6085 103.92 66.4563 102.343 70.3105 102.343C75.171 102.343 77.7548 105.12 77.7548 110.708V121.379H79.6819ZM70.0464 119.237V112.435C67.7339 113.085 66.8417 114.577 66.8417 116.596C66.8417 118.409 67.6125 119.373 69.1542 119.373C69.4548 119.366 69.7538 119.328 70.0464 119.259V119.237Z" fill="white"/>
<path d="M104.541 121.379V122H94.906V118.952C92.8575 121.036 90.4736 122.385 88.1968 122.385C84.2641 122.385 81.3378 119.187 81.3378 113.249C81.3378 106.825 84.9992 102.343 90.2809 102.343C91.9354 102.313 93.5562 102.813 94.906 103.771V98.4461L92.7076 96.5618L102.586 93.0931V121.379H104.541ZM94.906 118.417V104.42C94.3489 104.04 93.6891 103.838 93.0145 103.842C91.0089 103.842 89.5815 106.276 89.5815 111.051C89.5815 116.218 90.702 118.802 93.2858 118.802C93.8467 118.787 94.3984 118.656 94.906 118.417Z" fill="white"/>
<path d="M130.079 121.671H9.2572V123.812H130.079V121.671Z" fill="white"/>
<path d="M55.2363 82.1229H58.1269V82.7438H43.6737V82.1229H46.7571V57.0706L43.3454 54.9936H58.6908L55.2577 57.0706L55.2363 82.1229ZM75.6278 82.1229V82.7438H63.951L55.6217 69.4469L65.6783 57.0349L62.2523 54.9936H74.3145L61.403 63.3158L73.7007 82.1229H75.6278Z" fill="white"/>
<path d="M75.7777 82.1229H77.7048V68.0551L75.5065 66.1708L85.4132 62.702V82.1229H87.3403V82.7438H75.7777V82.1229ZM77.2837 57.7272C77.2837 55.1863 78.8254 53.4448 81.5662 53.4448C84.3069 53.4448 85.8486 55.1792 85.8486 57.7272C85.8486 60.2753 84.3069 62.0097 81.5662 62.0097C78.8254 62.0097 77.2837 60.3324 77.2837 57.7272Z" fill="white"/>
<path d="M112.578 82.1229V82.7438H102.943V79.6962C100.901 81.7803 98.5103 83.1292 96.2406 83.1292C92.3079 83.1292 89.3745 79.9317 89.3745 73.9934C89.3745 67.5697 93.036 63.0874 98.3176 63.0874C99.9724 63.0558 101.594 63.5562 102.943 64.5149V59.1904L100.744 57.3062L110.651 53.8374V82.1229H112.578ZM102.943 79.1609V65.1644C102.388 64.7841 101.731 64.5824 101.058 64.5863C99.0528 64.5863 97.6253 67.0201 97.6253 71.7951C97.6253 76.9625 98.7459 79.5463 101.322 79.5463C101.886 79.5331 102.44 79.4018 102.95 79.1609H102.943Z" fill="white"/>
<path d="M114.241 82.1229L115.44 75.842H115.476L120.258 82.2656C120.668 82.3976 121.097 82.4627 121.528 82.4583C123.227 82.4583 124.383 81.5661 124.383 79.9888C124.383 78.8325 123.67 78.1759 122.071 77.3265L119.523 75.9776C116.325 74.286 114.784 72.4731 114.784 69.5539C114.784 65.6569 117.945 63.1302 123.07 63.1302C125.261 63.1051 127.439 63.4825 129.494 64.2437L127.995 70.339H127.952L123.484 63.9796C123.274 63.9015 123.052 63.8605 122.827 63.8583C121.136 63.8583 120.287 64.8218 120.287 65.9067C120.287 67.2557 120.9 68.2192 123.177 69.4111L126.068 70.9529C128.723 72.3803 130.115 74.3074 130.115 76.6628C130.115 80.6668 126.068 83.1364 121.329 83.1364C118.929 83.1437 116.542 82.8023 114.241 82.1229Z" fill="white"/>
<path d="M130.079 82.4155H9.2572V84.5567H130.079V82.4155Z" fill="white"/>
<path d="M12.1122 29.5988C12.1122 22.0403 17.2439 15.0671 26.0301 15.0671C34.4736 15.0671 40.7545 21.3837 40.7545 29.8272C40.7545 37.3786 35.7012 44.359 26.8794 44.359C18.4716 44.359 12.1122 38.0781 12.1122 29.5988ZM34.7805 38.9203C34.7805 30.6338 26.2156 17.2226 20.7127 17.2226C19.171 17.2226 18.129 18.3432 18.129 20.4987C18.129 28.7852 26.8366 42.1964 32.1611 42.1964C33.8527 42.1964 34.7805 41.1614 34.7805 38.9203Z" fill="white"/>
<path d="M65.8068 42.9672V43.5882H56.1927V40.619C53.6447 42.4676 51.4464 44.0092 49.2909 44.0092C45.8221 44.0092 44.2947 42.0036 44.2947 37.4214V29.1349L42.1035 27.2435L52.0031 23.7747V35.9083C52.0031 39.1416 52.2743 40.4192 54.2014 40.4192C54.8746 40.3982 55.5399 40.268 56.1713 40.0337V28.9707L53.973 27.0794L63.8797 23.6105V42.9957L65.8068 42.9672Z" fill="white"/>
<path d="M84.0714 24.0317V34.2453H84.0285C80.0173 29.813 78.2044 28.8066 76.8911 29.0422V42.9886H79.7461V43.6096H67.2271V42.9886H69.1542V28.9993L66.963 27.115L76.8911 23.7747V28.5925C79.0895 25.7375 81.5947 23.8889 83.3719 23.8889C83.6113 23.898 83.8476 23.9462 84.0714 24.0317Z" fill="white"/>
<path d="M130.079 43.5452H9.2572V45.6864H130.079V43.5452Z" fill="white"/>
<path d="M115.554 88.8392H121.45V121.671H114.127V90.2666C114.127 89.888 114.277 89.525 114.545 89.2573C114.813 88.9896 115.176 88.8392 115.554 88.8392Z" fill="#FFE500"/>
<path d="M38.5524 49.4013L44.9777 52.5089L30.6831 82.0657L22.9726 78.3366L36.6458 50.0649C36.8106 49.7241 37.1041 49.4627 37.4616 49.3382C37.8192 49.2138 38.2115 49.2365 38.5524 49.4013Z" fill="#BFE9E1"/>
<path d="M98.1463 10.6561H105.284V43.4881H96.7188V12.0836C96.7188 11.705 96.8692 11.3419 97.1369 11.0742C97.4046 10.8065 97.7677 10.6561 98.1463 10.6561Z" fill="#C82660"/>
<path d="M109.445 17.1297H113.013V43.4881H108.017V18.5572C108.017 18.1786 108.168 17.8156 108.435 17.5478C108.703 17.2801 109.066 17.1297 109.445 17.1297Z" fill="#FFB71B"/>
</svg>
