<?xml version="1.0" encoding="utf-8"?>
<!-- Generator: Adobe Illustrator 26.0.1, SVG Export Plug-In . SVG Version: 6.00 Build 0)  -->
<svg version="1.1" id="Layer_1" xmlns="http://www.w3.org/2000/svg" xmlns:xlink="http://www.w3.org/1999/xlink" x="0px" y="0px"
	 viewBox="0 0 16 16" style="enable-background:new 0 0 16 16;" xml:space="preserve">
<style type="text/css">
	.st0{fill-rule:evenodd;clip-rule:evenodd;fill:#FFFFFF;}
</style>
<path class="st0" d="M2,3.5c1.3,0,2-0.8,2-1.8C4,0.8,3.2,0,2,0S0,0.9,0,1.8C0,2.8,0.8,3.5,2,3.5z M0,4.4V16h4V4.4H0z M5,5.2
	c0,1,0.1,2.1,0.1,3.4V16h3.6V9.9c0-0.3,0-0.6,0.1-0.8c0.3-0.6,0.7-1.4,1.7-1.4c1.3,0,1.8,1,1.8,2.4V16H16V9.6C16,6.5,14.3,5,12,5
	c-1.9,0-3,1-3.5,1.7H8.4L8.3,5.2H5z"/>
</svg>
