<?xml version="1.0" encoding="utf-8"?>
<!-- Generator: Adobe Illustrator 26.0.1, SVG Export Plug-In . SVG Version: 6.00 Build 0)  -->
<svg version="1.1" id="Layer_1" xmlns="http://www.w3.org/2000/svg" xmlns:xlink="http://www.w3.org/1999/xlink" x="0px" y="0px"
	 viewBox="0 0 16 12" style="enable-background:new 0 0 16 12;" xml:space="preserve">
<style type="text/css">
	.st0{fill:#BFE9E1;}
</style>
<path class="st0" d="M16,1.4c-0.6,0.2-1.2,0.4-1.9,0.5c0.7-0.4,1.2-1,1.4-1.7c-0.6,0.4-1.3,0.6-2.1,0.7C13,0.5,12.3,0.1,11.6,0
	s-1.4,0-2.1,0.3C8.9,0.7,8.4,1.2,8.1,1.8C7.8,2.4,7.7,3.1,7.9,3.7c-1.3,0-2.6-0.4-3.8-0.9s-2.2-1.3-3-2.2C0.8,1,0.7,1.5,0.7,2.1
	c0,0.5,0.1,1,0.4,1.4s0.6,0.8,1.1,1.1c-0.5,0-1-0.1-1.5-0.4l0,0c0,0.7,0.3,1.4,0.7,1.9C1.9,6.6,2.5,7,3.3,7.2
	c-0.5,0.1-1,0.1-1.5,0.1C2,7.9,2.4,8.4,3,8.8c0.5,0.4,1.2,0.6,1.9,0.6c-1.2,0.8-2.6,1.3-4.1,1.3c-0.3,0-0.5,0-0.8,0
	C1.5,11.5,3.2,12,5,12c6,0,9.3-4.6,9.3-8.6c0-0.1,0-0.3,0-0.4C15,2.6,15.6,2,16,1.4L16,1.4z"/>
</svg>
