<svg width="224" height="232" viewBox="0 0 224 232" fill="none" xmlns="http://www.w3.org/2000/svg">
<g clip-path="url(#clip0_2939_6377)">
<g clip-path="url(#clip1_2939_6377)">
<path d="M64.9817 0C53.7761 0.00399668 42.7619 2.98804 33.0077 8.66262C23.2535 14.3372 15.0907 22.5096 9.31132 32.3867C3.53194 42.2638 0.332284 53.5103 0.022843 65.0347C-0.286598 76.5592 2.30468 87.9703 7.54523 98.1607V98.1607C7.54523 98.1607 39.864 165.093 129.988 232V66.8818C129.988 58.0987 128.306 49.4016 125.04 41.2872C121.773 33.1727 116.984 25.7997 110.948 19.5892C104.912 13.3786 97.7454 8.45214 89.8584 5.09102C81.9715 1.7299 73.5184 0 64.9817 0V0Z" fill="#C82660"/>
<path d="M194.994 4.78054e-06C206.202 -0.00324045 217.22 2.97626 226.979 8.64904C236.737 14.3218 244.903 22.495 250.684 32.3745C256.464 42.254 259.663 53.5039 259.969 65.0312C260.275 76.5585 257.678 87.9713 252.43 98.1607V98.1607C252.43 98.1607 220.136 165.093 129.963 232V66.8818C129.963 58.0966 131.645 49.3974 134.914 41.2813C138.182 33.1652 142.972 25.7911 149.011 19.5802C155.05 13.3693 162.22 8.44341 170.109 5.08377C177.999 1.72414 186.455 -0.00331664 194.994 4.78054e-06V4.78054e-06Z" fill="#FF6FA3"/>
</g>
</g>
<defs>
<clipPath id="clip0_2939_6377">
<rect width="224" height="232" fill="white"/>
</clipPath>
<clipPath id="clip1_2939_6377">
<rect width="260" height="232" fill="white"/>
</clipPath>
</defs>
</svg>
