<svg width="140" height="64" viewBox="0 0 140 64" fill="none" xmlns="http://www.w3.org/2000/svg">
<path d="M140 0H0V64H140V0Z" fill="#004750"/>
<path d="M36.6021 43.0995H28.8186L28.8186 13.0832H35.3049C35.6489 13.0832 35.9789 13.2207 36.2222 13.4654C36.4654 13.7102 36.6021 14.0422 36.6021 14.3883V43.0995Z" fill="#C82660"/>
<path d="M27.5213 43.106H20.6783L20.6783 8.44374H26.2241C26.5681 8.44374 26.8981 8.58121 27.1414 8.82596C27.3846 9.07071 27.5213 9.40267 27.5213 9.74879L27.5213 43.106Z" fill="#BFE9E1"/>
<path d="M19.3421 43.1061H14.8017L14.8017 19.0017H18.0448C18.3889 19.0017 18.7189 19.1391 18.9621 19.3839C19.2054 19.6286 19.3421 19.9606 19.3421 20.3067L19.3421 43.1061Z" fill="#FFB71B"/>
<path d="M39.9685 30.9494C39.9685 24.5481 44.2819 18.6427 51.6438 18.6427C58.7787 18.6427 64.0326 23.9935 64.0326 31.1452C64.0326 37.54 59.7841 43.4453 52.3573 43.4453C50.7176 43.4821 49.0876 43.1837 47.5659 42.5683C46.0442 41.9529 44.6624 41.0332 43.5043 39.865C42.3461 38.6968 41.4356 37.3043 40.8278 35.7719C40.2201 34.2394 39.9277 32.5988 39.9685 30.9494ZM59.0382 38.845C59.0382 31.8303 51.8384 20.4698 47.2007 20.4698C45.9034 20.4698 45.0278 21.416 45.0278 23.243C45.0278 30.2643 52.3573 41.6183 56.8328 41.6183C58.2598 41.6183 59.0382 40.7374 59.0382 38.845Z" fill="white"/>
<path d="M75.7274 42.3802H78.1598V42.9H65.998V42.3802H68.5925V21.2545L65.7061 19.5H78.6138L75.7274 21.2545V42.3802ZM92.8836 42.3802V42.9H83.0374L76.0323 31.6906L84.4969 21.222L81.6105 19.5H91.7615L80.9164 26.518L91.2621 42.3802H92.8836Z" fill="white"/>
<path d="M118.485 42.3802V42.9H109.242L103.048 32.178V42.3802H105.804V42.9H93.3182V42.3802H95.9127V21.2545L93.0263 19.5H105.253C111.642 19.5 115.307 21.4495 115.307 25.3484C115.307 28.5975 113.361 30.547 110.02 31.4632L116.928 42.4126L118.485 42.3802ZM103.048 20.0198V31.5606C107.037 31.3332 107.847 29.4162 107.847 25.3809C107.847 22.0993 106.615 20.0198 104.085 20.0198H103.048Z" fill="white"/>
<path d="M125.886 42.8385H11.7272V44.7961H125.886V42.8385Z" fill="white"/>
</svg>
