<svg width="64" height="46" viewBox="0 0 64 46" fill="none" xmlns="http://www.w3.org/2000/svg">
<path fill-rule="evenodd" clip-rule="evenodd" d="M8.06805 15.2664C7.7223 16.2134 7.43434 17.1929 7.19452 18.1883C9.46842 16.8 12.1408 16 15 16C23.2843 16 30 22.7157 30 31C30 39.2843 23.2843 46 15 46C7.05176 46 0.547391 39.818 0.0328046 32H1.45482e-05L7.39563e-06 31.855C-1.03379e-05 31.6157 -2.88461e-05 31.366 0.000370885 31.1066C0.000123764 31.0711 0 31.0356 0 31C0 30.9424 0.000324263 30.8849 0.000971061 30.8275C0.0134084 26.4029 0.182365 19.37 2.43196 13.2086C3.68043 9.78918 5.63073 6.4535 8.71177 3.97155C11.8355 1.4552 15.8955 0 21 0V6C17.1045 6 14.4145 7.0823 12.4757 8.64407C10.4943 10.2403 9.06958 12.5233 8.06805 15.2664ZM42.0681 15.2664C41.7223 16.2134 41.4343 17.1929 41.1945 18.1883C43.4684 16.8 46.1408 16 49 16C57.2843 16 64 22.7157 64 31C64 39.2843 57.2843 46 49 46C41.0518 46 34.5474 39.818 34.0328 32H34L34 31.855C34 31.6157 34 31.366 34.0004 31.1066C34.0001 31.0711 34 31.0356 34 31C34 30.9424 34.0003 30.8849 34.001 30.8275C34.0134 26.4029 34.1824 19.37 36.432 13.2086C37.6804 9.78918 39.6307 6.4535 42.7118 3.97155C45.8355 1.4552 49.8955 0 55 0V6C51.1045 6 48.4145 7.0823 46.4757 8.64407C44.4943 10.2403 43.0696 12.5233 42.0681 15.2664Z" fill="#004750"/>
</svg>
