<svg width="200" height="232" viewBox="0 0 200 232" fill="none" xmlns="http://www.w3.org/2000/svg">
<path d="M26 200H194V232H36C30.4772 232 26 227.523 26 222V200Z" fill="#C82660"/>
<path d="M12 160H180V192H22C16.4772 192 12 187.523 12 182V160Z" fill="#FF6FA3"/>
<path d="M0 40H168V72H10C4.47715 72 0 67.5228 0 62V40Z" fill="#52A192"/>
<path d="M32 120H200V152H42C36.4772 152 32 147.523 32 142V120Z" fill="#FFB71B"/>
<path d="M11 0H179V32H21C15.4772 32 11 27.5228 11 22V0Z" fill="#BFE9E1"/>
<path d="M18 80H186V112H28C22.4772 112 18 107.523 18 102V80Z" fill="#FFE500"/>
</svg>
