<?xml version="1.0" encoding="utf-8"?>
<!-- Generator: Adobe Illustrator 26.0.1, SVG Export Plug-In . SVG Version: 6.00 Build 0)  -->
<svg version="1.1" id="Layer_1" xmlns="http://www.w3.org/2000/svg" xmlns:xlink="http://www.w3.org/1999/xlink" x="0px" y="0px"
	 viewBox="0 0 16 10" style="enable-background:new 0 0 16 10;" xml:space="preserve">
<style type="text/css">
	.st0{fill:#FFFFFF;}
</style>
<path class="st0" d="M15.7,1.6c-0.1-0.3-0.3-0.6-0.5-0.8c-0.3-0.2-0.6-0.4-0.9-0.5C13,0,8,0,8,0C5.9,0,3.8,0.1,1.7,0.3
	C1.4,0.4,1.1,0.5,0.8,0.8C0.6,1,0.4,1.3,0.3,1.6C0.1,2.7,0,3.8,0,5c0,1.1,0.1,2.3,0.3,3.4C0.4,8.7,0.6,9,0.8,9.2
	c0.2,0.2,0.6,0.4,0.9,0.5C3,10,8,10,8,10c2.1,0,4.2-0.1,6.3-0.3c0.3-0.1,0.6-0.2,0.9-0.5c0.2-0.2,0.4-0.5,0.5-0.8
	C15.9,7.3,16,6.2,16,5C16,3.9,15.9,2.7,15.7,1.6L15.7,1.6z M6.4,7.1V2.9L10.6,5L6.4,7.1z"/>
</svg>
