<?xml version="1.0" encoding="utf-8"?>
<!-- Generator: Adobe Illustrator 26.0.1, SVG Export Plug-In . SVG Version: 6.00 Build 0)  -->
<svg version="1.1" id="Layer_1" xmlns="http://www.w3.org/2000/svg" xmlns:xlink="http://www.w3.org/1999/xlink" x="0px" y="0px"
	 viewBox="0 0 16 16" style="enable-background:new 0 0 16 16;" xml:space="preserve">
<style type="text/css">
	.st0{fill-rule:evenodd;clip-rule:evenodd;fill:#BFE9E1;}
</style>
<path class="st0" d="M4.7,0C5.6,0,5.8,0,8,0s2.4,0,3.3,0c0.9,0,1.4,0.2,1.9,0.4s1,0.5,1.4,0.9s0.7,0.9,0.9,1.4s0.3,1.1,0.4,1.9
	c0,0.9,0,1.1,0,3.3s0,2.4,0,3.3c0,0.9-0.2,1.4-0.4,1.9s-0.5,1-0.9,1.4s-0.9,0.7-1.4,0.9s-1.1,0.3-1.9,0.4c-0.9,0-1.1,0-3.3,0
	s-2.4,0-3.3,0s-1.4-0.2-1.9-0.4s-1-0.5-1.4-0.9s-0.7-0.9-0.9-1.4S0.2,12,0.1,11.2c0-0.9,0-1.1,0-3.3s0-2.4,0-3.3s0.2-1.4,0.4-1.9
	s0.5-1,0.9-1.4s0.9-0.7,1.4-0.9C3.3,0.2,3.9,0.1,4.7,0L4.7,0z M11.2,1.5c-0.8,0-1.1,0-3.2,0s-2.4,0-3.2,0S3.6,1.7,3.3,1.8
	C2.9,1.9,2.6,2.1,2.4,2.4C2.1,2.6,1.9,2.9,1.8,3.3C1.7,3.6,1.5,4,1.5,4.8s0,1.1,0,3.2s0,2.4,0,3.2s0.2,1.2,0.3,1.5
	c0.1,0.3,0.3,0.7,0.6,0.9c0.3,0.3,0.6,0.5,0.9,0.6s0.7,0.2,1.5,0.3c0.8,0,1.1,0,3.2,0s2.4,0,3.2,0s1.2-0.2,1.5-0.3
	c0.4-0.1,0.6-0.3,0.9-0.6c0.3-0.3,0.5-0.6,0.6-0.9c0.1-0.3,0.2-0.7,0.3-1.5c0-0.8,0-1.1,0-3.2s0-2.4,0-3.2s-0.2-1.2-0.3-1.5
	c-0.1-0.4-0.3-0.6-0.6-0.9S13,1.9,12.7,1.8C12.4,1.7,12,1.5,11.2,1.5z M7,10.5c0.6,0.2,1.2,0.3,1.8,0.1s1.1-0.6,1.4-1.1
	c0.3-0.5,0.5-1.1,0.4-1.7s-0.3-1.2-0.8-1.6c-0.3-0.3-0.6-0.5-1-0.6C8.5,5.4,8.1,5.3,7.7,5.3C7.3,5.4,7,5.5,6.6,5.7
	C6.3,5.9,6,6.2,5.8,6.5C5.6,6.8,5.4,7.2,5.4,7.6C5.3,8,5.3,8.4,5.4,8.8c0.1,0.4,0.3,0.7,0.6,1C6.3,10.1,6.6,10.3,7,10.5z M5.1,5.1
	c0.4-0.4,0.8-0.7,1.3-0.9C6.9,4,7.5,3.9,8,3.9S9.1,4,9.6,4.2s1,0.5,1.3,0.9c0.4,0.4,0.7,0.8,0.9,1.3s0.3,1,0.3,1.6S12,9.1,11.8,9.6
	s-0.5,1-0.9,1.3c-0.8,0.8-1.8,1.2-2.9,1.2s-2.1-0.4-2.9-1.2S3.9,9.1,3.9,8S4.3,5.9,5.1,5.1z M13,4.5c0.1-0.1,0.2-0.2,0.2-0.3
	c0.1-0.1,0.1-0.2,0.1-0.4c0-0.1,0-0.3-0.1-0.4c0-0.1-0.1-0.2-0.2-0.3c0-0.1-0.2-0.2-0.3-0.2s-0.2-0.1-0.4-0.1c-0.1,0-0.3,0-0.4,0.1
	C11.8,3,11.7,3,11.6,3.1c-0.2,0.2-0.3,0.4-0.3,0.7s0.1,0.5,0.3,0.7s0.4,0.3,0.7,0.3S12.8,4.7,13,4.5z"/>
</svg>
