<svg width="24" height="24" viewBox="0 0 24 24" fill="none" xmlns="http://www.w3.org/2000/svg">
<rect width="24" height="24.0004" transform="translate(0.000244141)" fill="#004750"/>
<path fill-rule="evenodd" clip-rule="evenodd" d="M5.999 7.53422C7.29 7.53422 8 6.72178 8 5.77778C7.976 4.80889 7.24 4 6 4C4.76 4 4 4.85511 4 5.824C4 6.768 4.784 7.53422 5.999 7.53422ZM4 8.44444L4 20H8L8 8.44444H4ZM9 9.23834C9.04636 10.1977 9.09271 11.3086 9.09271 12.638L9.09271 20H12.7285V13.8572C12.7285 13.5518 12.7512 13.2472 12.8439 13.0286C13.0975 12.4186 13.5811 11.6786 14.5464 11.6786C15.8125 11.6786 16.3642 12.7249 16.3642 14.0964V20H20V13.5965C20 10.4585 18.273 9 15.9716 9C14.0846 9 12.9575 10.0231 12.4976 10.7209H12.4285L12.2667 9.23834H9Z" fill="white"/>
</svg>
